<svg xmlns="http://www.w3.org/2000/svg" width="141.017" height="30" viewBox="0 0 141.017 30">
  <g transform="translate(20.279 -35.027)">
    <path d="M-20.278,47.574h1.852V65.027h-1.852Z" fill="#eee"/>
    <path d="M7.759,47.574H9.613V65.027H7.759Z" fill="#eee"/>
    <path d="M-18.529,65.027v-1.65H8.126v1.65Z" fill="#eee"/>
    <path d="M9.612,47.575-5.334,58.322-20.279,47.575-5.334,35.027Z" fill="#eee"/>
    <path d="M.079,54.415l2.833,2.833-15.484,4.461,6.057-4.291" fill="#eee"/>
        <path d="M33.824,50.9a10.293,10.293,0,0,1-.705,3.926A8.117,8.117,0,0,1,31,57.853a9.825,9.825,0,0,1-3.455,1.95,14.686,14.686,0,0,1-4.675.7c-1.812,0-3.186-.042-4.139-.119s-1.473-.135-1.587-.156V42.718c0-.655.367-1.015,1.086-1.085.438-.057,1.05-.113,1.854-.177s1.7-.085,2.729-.085a14.544,14.544,0,0,1,4.7.706,10.049,10.049,0,0,1,3.455,1.966,8.114,8.114,0,0,1,2.116,3.011A10.044,10.044,0,0,1,33.824,50.9Zm-2.01,0a9.23,9.23,0,0,0-.525-3.188,6.223,6.223,0,0,0-1.664-2.495A7.948,7.948,0,0,0,26.7,43.6a13.972,13.972,0,0,0-4.286-.586A23.943,23.943,0,0,0,20,43.1c-.579.063-.917.1-1,.127v15.4c.12.035.473.085,1.044.162a23.054,23.054,0,0,0,2.588.106,12.384,12.384,0,0,0,4.025-.607,7.906,7.906,0,0,0,2.871-1.635,6.656,6.656,0,0,0,1.724-2.539,9.088,9.088,0,0,0,.564-3.244Z" fill="#eee"/>
        <path d="M39.79,42.077a1.289,1.289,0,0,1-.4.937,1.269,1.269,0,0,1-.938.388,1.209,1.209,0,0,1-.916-.388,1.3,1.3,0,0,1-.381-.937,1.259,1.259,0,0,1,.38-.909,1.221,1.221,0,0,1,.915-.375,1.288,1.288,0,0,1,.939.375A1.247,1.247,0,0,1,39.79,42.077Zm-2.2,5.64a.852.852,0,0,1,.767-.929h0a.829.829,0,0,1,.211.006,1.544,1.544,0,0,1,.472.071,1.872,1.872,0,0,1,.339.12V60.226H37.589Z" fill="#eee"/>
        <path d="M52.5,47.809a.85.85,0,0,1-.15.493,3.3,3.3,0,0,1-.282.353,6.9,6.9,0,0,0-1.17-.409,6.319,6.319,0,0,0-1.649-.191,5.675,5.675,0,0,0-1.862.268,2.928,2.928,0,0,0-1.206.8,3.115,3.115,0,0,0-.649,1.312,7.645,7.645,0,0,0-.189,1.791v7.995h-1.79V51.393a4.7,4.7,0,0,1,1.41-3.645,5.909,5.909,0,0,1,4.125-1.291,8.025,8.025,0,0,1,2.44.325C52.177,47.012,52.5,47.343,52.5,47.809Z" fill="#eee"/>
        <path d="M56.026,54.7a4.8,4.8,0,0,0,1.735,3.229,5.951,5.951,0,0,0,3.793,1.136,6.09,6.09,0,0,0,2.348-.4,11.793,11.793,0,0,0,1.48-.7l.783,1.3c-.15.091-.359.211-.649.366a6.991,6.991,0,0,1-1.057.444,9.479,9.479,0,0,1-3.145.515,8.714,8.714,0,0,1-2.82-.444,6.719,6.719,0,0,1-2.305-1.319,6.1,6.1,0,0,1-1.561-2.117,7.2,7.2,0,0,1-.571-2.961,7.915,7.915,0,0,1,.543-2.969,6.763,6.763,0,0,1,1.516-2.3,6.868,6.868,0,0,1,2.333-1.474,7.96,7.96,0,0,1,2.94-.525,8.26,8.26,0,0,1,2.376.31,4.929,4.929,0,0,1,1.693.881,3.694,3.694,0,0,1,.987,1.318,4.107,4.107,0,0,1,.339,1.665,3.649,3.649,0,0,1-.339,1.642A3.228,3.228,0,0,1,65.2,53.6a7.137,7.137,0,0,1-2.362.867,18.159,18.159,0,0,1-3.73.318H57.525A14.453,14.453,0,0,1,56.026,54.7Zm-.056-1.41c.486.035.966.057,1.41.071h1.452a16.368,16.368,0,0,0,3.039-.233,6.715,6.715,0,0,0,1.883-.613,2.238,2.238,0,0,0,.959-.889,2.276,2.276,0,0,0,.324-1.085,2.4,2.4,0,0,0-.317-1.275,2.294,2.294,0,0,0-.874-.839,3.753,3.753,0,0,0-1.192-.45,7.29,7.29,0,0,0-1.367-.135,5.278,5.278,0,0,0-2.25.45A4.739,4.739,0,0,0,57.4,49.495a5.5,5.5,0,0,0-1.03,1.749,6.181,6.181,0,0,0-.394,2.043Z" fill="#eee"/>
        <path d="M76.629,48a6.717,6.717,0,0,0-2.115.325,4.411,4.411,0,0,0-1.665,1.008,4.53,4.53,0,0,0-1.1,1.72,6.993,6.993,0,0,0-.394,2.453,6.583,6.583,0,0,0,.437,2.518,4.578,4.578,0,0,0,1.177,1.725,4.947,4.947,0,0,0,1.763.987,6.987,6.987,0,0,0,2.157.325,6.133,6.133,0,0,0,2.236-.325,12.2,12.2,0,0,0,1.234-.571l.705,1.333a11.007,11.007,0,0,1-1.819.768,8.921,8.921,0,0,1-2.714.339,8.438,8.438,0,0,1-2.821-.458,6.139,6.139,0,0,1-3.758-3.525,7.643,7.643,0,0,1-.543-2.955,8.108,8.108,0,0,1,.543-3.046,6.556,6.556,0,0,1,1.495-2.271,6.194,6.194,0,0,1,2.278-1.409,8.655,8.655,0,0,1,2.9-.472,8.362,8.362,0,0,1,2.82.366,4.685,4.685,0,0,1,1.248.586,1.356,1.356,0,0,1,.325.338.864.864,0,0,1,.134.5,1.209,1.209,0,0,1-.15.515,1.4,1.4,0,0,1-.445.514,5.828,5.828,0,0,0-1.416-.867A6.233,6.233,0,0,0,76.629,48Z" fill="#eee"/>
        <path d="M85.683,48.464v7.862a2.6,2.6,0,0,0,.789,2.116,3.22,3.22,0,0,0,2.059.621,4.243,4.243,0,0,0,1.516-.268,5.873,5.873,0,0,0,1.079-.5l.79,1.171a3.826,3.826,0,0,1-.5.324,7,7,0,0,1-.819.381,6.4,6.4,0,0,1-1.107.31,7.157,7.157,0,0,1-1.409.119,5.337,5.337,0,0,1-1.875-.3,3.488,3.488,0,0,1-1.3-.825,3.374,3.374,0,0,1-.776-1.262,4.84,4.84,0,0,1-.253-1.6V44.122a.845.845,0,0,1,.76-.923h0a.877.877,0,0,1,.211.006,1.8,1.8,0,0,1,.473.063,2.753,2.753,0,0,1,.338.127v3.441h4.773a1.015,1.015,0,0,1,.79.254.99.99,0,0,1,.212.642,1.523,1.523,0,0,1-.05.409c-.032.11-.07.218-.112.324Z" fill="#eee"/>
        <path d="M95.963,60.226V42.6a1.04,1.04,0,0,1,.225-.7,1,1,0,0,1,.776-.268,1.928,1.928,0,0,1,.5.063,2.2,2.2,0,0,1,.366.15V60.227Z" fill="#eee"/>
        <path d="M120.737,50.9a9.922,9.922,0,0,1-.938,4.364,9.415,9.415,0,0,1-2.587,3.278l2.63,3.307-1.41,1.057-2.63-3.383a10.054,10.054,0,0,1-2.278.881,10.574,10.574,0,0,1-6.449-.416,9.177,9.177,0,0,1-3.089-2.045,9.7,9.7,0,0,1-2.052-3.123,10.681,10.681,0,0,1,0-7.813,9.552,9.552,0,0,1,2.052-3.089,9.4,9.4,0,0,1,3.089-2.038,10.718,10.718,0,0,1,7.755,0,9.53,9.53,0,0,1,3.089,2.025,9.327,9.327,0,0,1,2.073,3.1A9.971,9.971,0,0,1,120.737,50.9Zm-2.009,0a8.852,8.852,0,0,0-.592-3.287,7.818,7.818,0,0,0-1.629-2.559,7.3,7.3,0,0,0-2.467-1.665,8.178,8.178,0,0,0-6.142,0,7.461,7.461,0,0,0-2.453,1.665,7.8,7.8,0,0,0-1.629,2.559,9.32,9.32,0,0,0,0,6.58,7.881,7.881,0,0,0,1.636,2.587,7.41,7.41,0,0,0,2.454,1.685,7.881,7.881,0,0,0,3.066.592,7.6,7.6,0,0,0,3.744-.924l-2.333-2.954a1.414,1.414,0,0,1-.41-.9.792.792,0,0,1,.29-.606,1.517,1.517,0,0,1,.9-.31l2.982,3.766a7.377,7.377,0,0,0,1.915-2.685,8.794,8.794,0,0,0,.671-3.548Z" fill="#eee"/>
      </g>
</svg>
